<svg xmlns="http://www.w3.org/2000/svg" width="295.26" height="122.401" viewBox="0 0 295.26 122.401"><g transform="translate(-2084.513 -2911.292)"><path d="M2372.338,2985.565c-5.967-5.621-14.293-7.369-21.3-4.45-7.394,3.073-11.714,9.206-11.508,16.369.141,6,3.439,11.327,7.972,12.962a8.609,8.609,0,0,0,9.554-2.817l-6.609-5.376c-.619-.206-2.09-2.122-2.212-4.911-.1-2.521.913-5.979,6.178-8.2,3.768-1.582,8.48-.5,11.957,2.751,4.7,4.45,5.941,11.572,3.293,19.083-3.826,10.878-12.543,9.232-34.73,2.211-23.281-7.393-55.183-17.513-81.87,8.024-7.806,7.471-24.966,10.878-46.021,9-17.584-1.544-35.921-4.732-50.96-17.566-15.744-13.4-31.168-18.7-43.313-20.548a64.564,64.564,0,0,1,38.6,6.571c21.164,10.724,46.637,20.831,67.679,20.831,11.952,0,22.465-3.266,29.941-11.508,16.486-18.157,36.229-16.15,53.588-14.389,15.49,1.621,31.5,3.215,36.975-14.222,2.972-9.5.882-18.375-5.7-24.393-6.88-6.275-17.783-8.331-25.941-4.911-9.272,3.87-10.107,10.2-10.036,12.742.135,5.208,3.9,10.12,9.147,12.023a10.732,10.732,0,0,0,12.044-3l-6.591-5.7c-.3.323-.893,1.03-2.5.465-1.8-.631-3.355-2.483-3.388-4.039-.059-2.236,3.273-3.857,4.694-4.46,5.092-2.11,12.273-.708,16.678,3.317,2.88,2.611,5.76,7.393,3.259,15.341-3.188,10.236-11.3,9.862-27.768,8.177-17.521-1.773-41.494-4.268-60.917,17.194-17.868,19.684-62.293,1.414-87.207-11.253a73.324,73.324,0,0,0-28.262-7.914,57.935,57.935,0,0,1,27.992,5.986c17.7,8.615,32.526,11.11,44.522,10.531,17.494-.836,28.926-8.255,34.4-12.859,8.473-7.1,8.267-19.094,3.832-26.81-3.916-6.66-12.221-12.229-23.859-7.907a12.393,12.393,0,0,0-7.882,15.4c1.683,5.735,7.573,10.647,16.96,8.5l-1.556-6.9c-5.182,1.119-7.856-1.119-8.6-3.626a5.375,5.375,0,0,1,3.548-6.712c9.163-3.459,13.715,2.239,15.2,4.835,3.087,5.259,3.087,13.361-2.21,17.81-8.146,6.827-31.427,20.729-71.25,1.35-39.906-19.391-73.339,8.911-73.66,9.206l.457.527c-.193.116-.393.232-.457.271l4.147,6.667v.893c1.158-.32,32.635-4.834,61.76,19.16,17.14,14.157,36.859,17.925,55.864,19.6,4.038.362,7.953.516,11.72.516,18.362,0,32.995-4.167,41.09-11.908,22.985-21.949,49.679-13.45,73.209-5.992,19,5.992,38.627,12.267,45.6-7.624C2381.706,3003.024,2379.643,2992.417,2372.338,2985.565Z" transform="translate(0 -5.709)" fill="#fff"/><path d="M2184.659,2954.021c.213-.205.437-.462.661-.719-4.423.089-10.776-3.009-15.366-7.535-7.386-7.267-11.8-17.359-10.621-15.739,4.237,5.863,7.915,11.123,12.762,14.724,6.3,4.693,13.811,6.03,14.84,6.533,4.558-6.636,6.184-17.322-4.089-22.812-4.713-2.365-9.625,1.864-15.5-.888a15,15,0,0,1-9.664-15.867l-.43-.425c-2.211,7.5-5.607,26.167-1.986,34.333C2161.534,2960.348,2176.751,2961.646,2184.659,2954.021Z" transform="translate(-10.632)" fill="#00b612"/></g></svg>